<?xml version="1.0" encoding="UTF-8"?>
<svg width="40px" height="40px" viewBox="0 0 40 40" version="1.1" xmlns="http://www.w3.org/2000/svg">
    <g stroke="none" stroke-width="1" fill="none" fill-rule="evenodd">
        <g id="qwik-logo" transform="translate(5.000000, 4.000000)" fill-rule="nonzero">
            <path d="M26.4413949,31.9992939 L20.7056404,26.2928533 L20.6235615,26.3065332 L20.6235615,26.2479053 L8.42702189,14.1823012 L11.4385373,11.2802244 L9.66797729,1.13174982 L1.28615414,11.5284155 C-0.136547477,12.9667512 -0.410143943,15.3177266 0.621705584,17.0413843 L5.85912364,25.7358891 C6.66037043,27.0686947 7.91891417,27.9246608 9.67579433,27.8621245 C13.394752,27.731189 15.030468,27.731189 15.030468,27.731189 L26.4374864,31.9934311 L26.4413949,31.9973396 L26.4413949,31.9992939 Z"
                  id="Path" fill="#18B6F6"/>
            <path d="M29.2750726,16.0095348 C30.1017247,14.3054196 30.3968181,12.8143189 29.5818914,11.3193096 L28.423015,9.18525721 L27.8211028,8.09087135 L27.5865915,7.66093404 L27.5670489,7.68829369 L24.4109183,2.21636438 C23.6166323,0.831449743 22.1359651,-0.016140667 20.5395283,0 L17.7722954,0.0784034304 L9.51554497,0.0999002956 C7.95610727,0.111116838 6.51752177,0.941755213 5.72818818,2.28671776 L0.711601565,12.2495376 L9.68947415,1.08093905 L21.467802,14.0318232 L19.3572007,16.1678299 L20.6176987,26.2987161 L20.635287,26.2791735 L20.635287,26.3065332 L20.6157444,26.3065332 L20.6431041,26.3319385 L21.6241428,27.2895262 L26.3729958,31.9289405 C26.5742846,32.1204581 26.8967376,31.8898553 26.7638479,31.6514355 L23.8285486,25.8726873"
                  id="Path" fill="#AC7EF4"/>
        </g>
    </g>
</svg>
