<svg xmlns="http://www.w3.org/2000/svg" width="40" height="40">
    <g fill="none" fill-rule="nonzero">
        <path fill="#18B6F6" d="m31.441 36-5.735-5.707-.082.014v-.06L13.427 18.183l3.012-2.902-1.771-10.148-8.382 10.396c-1.423 1.439-1.696 3.79-.664 5.513l5.237 8.695c.801 1.333 2.06 2.189 3.817 2.126 3.719-.13 5.354-.13 5.354-.13l11.407 4.261.004.004V36Z"/>
        <path fill="#AC7EF4" d="M34.275 20.01c.827-1.705 1.122-3.196.307-4.69l-1.159-2.135-.602-1.094-.234-.43-.02.027-3.156-5.472A4.411 4.411 0 0 0 25.54 4l-2.768.078-8.256.022a4.428 4.428 0 0 0-3.788 2.187L5.712 16.25l8.977-11.17 11.779 12.952-2.11 2.136 1.26 10.13.017-.019v.028h-.02l.028.025.981.958 4.749 4.639c.201.191.524-.04.39-.278l-2.934-5.778"/>
    </g>
</svg>
