<?xml version="1.0" encoding="UTF-8"?>
<svg width="16px" height="16px" viewBox="0 0 16 16" version="1.1" xmlns="http://www.w3.org/2000/svg">
    <g stroke="none" stroke-width="1" fill="none" fill-rule="evenodd">
        <g id="qwik-logo" transform="translate(2.000000, 2.000000)" fill-rule="nonzero">
            <path d="M10.576558,12.7997176 L8.28225616,10.5171413 L8.24942459,10.5226133 L8.24942459,10.4991621 L3.37080876,5.67292049 L4.57541491,4.51208977 L3.86719091,0.452699929 L0.514461657,4.6113662 C-0.054618991,5.18670048 -0.164057577,6.12709062 0.248682234,6.81655371 L2.34364945,10.2943556 C2.66414817,10.8274779 3.16756567,11.1698643 3.87031773,11.1448498 C5.3579008,11.0924756 6.0121872,11.0924756 6.0121872,11.0924756 L10.5749945,12.7973724 L10.576558,12.7989359 L10.576558,12.7997176 Z"
                  id="Path" fill="#18B6F6"/>
            <path d="M11.710029,6.4038139 C12.0406899,5.72216785 12.1587272,5.12572756 11.8327566,4.52772386 L11.369206,3.67410288 L11.1284411,3.23634854 L11.0346366,3.06437362 L11.0268196,3.07531748 L9.7643673,0.886545753 C9.44665292,0.332579897 8.85438605,-0.00645626682 8.21581131,0 L7.10891818,0.0313613722 L3.80621799,0.0399601182 C3.18244291,0.0444467352 2.60700871,0.376702085 2.29127527,0.914687103 L0.284640626,4.89981505 L3.87578966,0.43237562 L8.58712079,5.61272927 L7.74288027,6.46713194 L8.24707947,10.5194864 L8.25411481,10.5116694 L8.25411481,10.5226133 L8.24629777,10.5226133 L8.25724163,10.5327754 L8.64965713,10.9158105 L10.5491983,12.7715762 C10.6297138,12.8481832 10.758695,12.7559421 10.7055391,12.6605742 L9.53141945,10.3490749"
                  id="Path" fill="#AC7EF4"/>
        </g>
    </g>
</svg>
