<svg xmlns="http://www.w3.org/2000/svg" width="16" height="16">
    <g fill="none" fill-rule="nonzero">
        <path fill="#18B6F6" d="m12.577 14.8-2.295-2.283-.033.006v-.024L5.371 7.673l1.204-1.16-.708-4.06L2.514 6.61a1.85 1.85 0 0 0-.265 2.206l2.095 3.477c.32.533.824.876 1.526.85 1.488-.052 2.142-.052 2.142-.052l4.563 1.705.002.002Z"/>
        <path fill="#AC7EF4" d="M13.71 8.404c.33-.682.449-1.278.123-1.876l-.464-.854-.24-.438-.094-.172-.008.011-1.263-2.188A1.765 1.765 0 0 0 10.216 2l-1.107.031-3.303.009c-.624.004-1.199.337-1.515.875L2.285 6.9l3.59-4.468 4.712 5.18-.844.855.504 4.052.007-.007v.01h-.008l.011.01.393.384 1.9 1.856c.08.076.209-.016.156-.111l-1.175-2.312"/>
    </g>
</svg>
